<svg xmlns="http://www.w3.org/2000/svg" viewBox="0 0 1600 1000">
<rect width="1600" height="1000" fill="#101010"/>
<g fill="none" stroke="#363636" stroke-width="2"><path d="M0 200h1600M0 400h1600M0 600h1600M0 800h1600"/><path d="M320 0v1000M640 0v1000M960 0v1000M1280 0v1000"/></g>
<rect x="120" y="115" width="520" height="320" rx="28" fill="#ff4d24"/>
<rect x="720" y="115" width="760" height="320" rx="28" fill="#202020"/>
<rect x="120" y="515" width="820" height="365" rx="28" fill="#202020"/>
<rect x="1020" y="515" width="460" height="365" rx="28" fill="#ffb000"/>
<text x="170" y="220" fill="#fff" font-family="Arial,Helvetica,sans-serif" font-size="30" font-weight="700" letter-spacing="6">CAMPAIGN SYSTEM</text>
<text x="170" y="330" fill="#fff" font-family="Arial,Helvetica,sans-serif" font-size="76" font-weight="900">One idea.</text>
<text x="770" y="255" fill="#fff" font-family="Arial,Helvetica,sans-serif" font-size="64" font-weight="900">TV • DIGITAL • SOCIAL</text>
<text x="770" y="340" fill="#aaa" font-family="Arial,Helvetica,sans-serif" font-size="34">A connected body of work—not a one-off execution.</text>
<text x="170" y="650" fill="#fff" font-family="Arial,Helvetica,sans-serif" font-size="72" font-weight="900">Built to flex across</text>
<text x="170" y="740" fill="#fff" font-family="Arial,Helvetica,sans-serif" font-size="72" font-weight="900">every touchpoint.</text>
<text x="1070" y="690" fill="#111" font-family="Arial,Helvetica,sans-serif" font-size="54" font-weight="900">SCRIPT</text>
<text x="1070" y="755" fill="#111" font-family="Arial,Helvetica,sans-serif" font-size="54" font-weight="900">SCREEN</text>
</svg>